#!OML:ASF F:\VICON\USERDATA\INSTALL\rory3\rory3.ASF
:FULLY-SPECIFIED
:DEGREES
451
root -7.8295 16.812 -8.62579 185.472 -30.771 -174.293
lowerback -8.77638 -0.79191 5.09152
upperback -6.1378 -1.89275 1.37459
thorax -1.56356 -1.29102 -1.56084
lowerneck -14.1119 0.725118 -8.00098
upperneck 28.2328 -1.28696 10.5069
head 11.5916 -0.677114 5.03915
rclavicle -1.91894e-014 -2.07714e-015
rhumerus -40.8931 7.79725 -91.017
rradius 39.1925
rwrist 9.03663
rhand -29.0839 -52.2318
rfingers 7.12502
rthumb -2.43269 -1162.2
lclavicle -1.91894e-014 -2.07714e-015
lhumerus -31.2024 -15.3768 86.6996
lradius 47.0113
lwrist 18.5861
lhand -39.5064 327.785
lfingers 7.12502
lthumb -12.4919 -2.60825
rfemur -25.3342 27.2811 23.2487
rtibia 45.3456
rfoot -26.6475 -3.38385
rtoes 2.25908
lfemur -33.474 -11.5658 -14.2036
ltibia 49.3065
lfoot -27.9642 6.0352
ltoes -10.7044
452
root -7.88315 16.8151 -8.67532 185.686 -30.2926 -174.308
lowerback -9.21631 -0.876216 4.95416
upperback -6.00171 -2.03252 1.58189
thorax -1.17527 -1.34417 -1.29731
lowerneck -14.3617 0.757827 -8.19194
upperneck 28.3335 -1.15815 10.4657
head 11.667 -0.637969 5.08409
rclavicle 1.0517e-014 5.86415e-015
rhumerus -41.1825 8.30327 -91.272
rradius 38.869
rwrist 8.62699
rhand -27.9158 -51.6817
rfingers 7.12502
rthumb -1.30456 -1161.66
lclavicle 1.0517e-014 5.86415e-015
lhumerus -31.0696 -16.2359 87.6896
lradius 47.6868
lwrist 18.1927
lhand -40.0218 327.917
lfingers 7.12502
lthumb -12.9888 -2.50722
rfemur -25.2345 27.3157 23.137
rtibia 45.1677
rfoot -26.7817 -3.06014
rtoes 1.66767
lfemur -33.213 -11.1766 -14.3693
ltibia 49.2228
lfoot -28.0645 6.14851
ltoes -9.70509
453
root -7.9486 16.8172 -8.73366 185.717 -29.5427 -174.222
lowerback -9.52136 -0.861308 5.11827
upperback -5.86825 -2.05144 1.66334
thorax -0.873364 -1.3483 -1.31927
lowerneck -14.1118 0.764187 -7.39382
upperneck 28.121 -1.17176 9.79937
head 11.5345 -0.6403 4.66973
rclavicle -4.22045e-014 7.95139e-016
rhumerus -41.5359 8.90053 -91.8196
rradius 38.331
rwrist 8.14366
rhand -26.8511 -50.9046
rfingers 7.12502
rthumb -0.276285 -1160.88
lclavicle -4.22045e-014 7.95139e-016
lhumerus -30.4547 -16.7115 88.2705
lradius 47.1869
lwrist 17.1401
lhand -38.3452 328.102
lfingers 7.12502
lthumb -11.3722 -2.22614
rfemur -24.9147 27.5959 23.1621
rtibia 44.9656
rfoot -26.9105 -2.61678
rtoes 1.09999
lfemur -32.7785 -10.5842 -14.539
ltibia 49.2073
lfoot -27.978 6.19281
ltoes -8.57625
454
root -8.00861 16.8201 -8.77652 186.027 -29.5374 -174.434
lowerback -9.60662 -1.06771 5.21882
upperback -5.99171 -2.34798 1.56133
thorax -0.982611 -1.51139 -1.50371
lowerneck -13.7107 0.787118 -7.04377
upperneck 27.9783 -1.21466 9.59644
head 11.4011 -0.663632 4.51009
rclavicle -1.22501e-014 4.62174e-015
rhumerus -42.1599 9.09141 -92.3954
rradius 37.7911
rwrist 8.12533
rhand -25.3255 -50.3195
rfingers 7.12502
rthumb 1.19718 -1160.3
lclavicle -1.22501e-014 4.62174e-015
lhumerus -29.1984 -17.3511 88.9072
lradius 45.4299
lwrist 16.4178
lhand -38.136 327.063
lfingers 7.12502
lthumb -11.1704 -3.25399
rfemur -24.7538 27.3811 22.8726
rtibia 44.8568
rfoot -27.1056 -2.49364
rtoes 0.653527
lfemur -32.7982 -10.4528 -14.9489
ltibia 49.2121
lfoot -27.4625 5.7104
ltoes -6.75696
